# xmcd
#
# Track frame offsets:
#	150
#	14099
#	30297
#	40504
#	55067
#	68522
#	87806
#	99483
#	115557
#	131474
#	140458
#	153589
#
# Disc length: 2253 seconds
#
# Revision: 0
# Processed by: cddbd v1.5PL3 Copyright (c) Steve Scherf et al.
# Submitted via: dBpowerAMP V4.0
#
DISCID=8a08cb0c
DTITLE=Mike McClure - Twelve Pieces
DYEAR=2002
DGENRE=Texas Country
TTITLE0=Haunt Me No More
TTITLE1=Hotel Band
TTITLE2=In My Ears
TTITLE3=Wicked Game of Hearts
TTITLE4=Dings
TTITLE5=The Void
TTITLE6=The Calling Chapter Two
TTITLE7=Harder To Ignore
TTITLE8=Marleigh's Song
TTITLE9=Driftin'
TTITLE10=World Go Round
TTITLE11=Between Two Thieves
EXTD=TEXAS COUNTRY
EXTT0=
EXTT1=
EXTT2=
EXTT3=
EXTT4=
EXTT5=
EXTT6=
EXTT7=
EXTT8=
EXTT9=
EXTT10=
EXTT11=
PLAYORDER=
